<?xml version="1.0" encoding="UTF-8"?>
<svg width="16px" height="13px" viewBox="0 0 16 13" version="1.1" xmlns="http://www.w3.org/2000/svg" xmlns:xlink="http://www.w3.org/1999/xlink">
    <!-- Generator: Sketch 49.1 (51147) - http://www.bohemiancoding.com/sketch -->
    <title>Mask</title>
    <desc>Created with Sketch.</desc>
    <defs>
        <path d="M1.76,13 L14.24,13 C15.34,11.63 16,9.89 16,8 C16,3.58 12.42,0 8,0 C3.58,0 0,3.58 0,8 C0,9.89 0.66,11.63 1.76,13 Z M8,1 C8.55,1 9,1.45 9,2 C9,2.55 8.55,3 8,3 C7.45,3 7,2.55 7,2 C7,1.45 7.45,1 8,1 Z M4,3 C4.55,3 5,3.45 5,4 C5,4.55 4.55,5 4,5 C3.45,5 3,4.55 3,4 C3,3.45 3.45,3 4,3 Z M12,3 C12.55,3 13,3.45 13,4 C13,4.55 12.55,5 12,5 C11.45,5 11,4.55 11,4 C11,3.45 11.45,3 12,3 Z M6.63,8.55 L10,4 L10,10 C10,11.1 9.1,12 8,12 C6.9,12 6,11.1 6,10 C6,9.43 6.24,8.92 6.63,8.55 Z M2,7 C2.55,7 3,7.45 3,8 C3,8.55 2.55,9 2,9 C1.45,9 1,8.55 1,8 C1,7.45 1.45,7 2,7 Z M14,7 C14.55,7 15,7.45 15,8 C15,8.55 14.55,9 14,9 C13.45,9 13,8.55 13,8 C13,7.45 13.45,7 14,7 Z M9,10 C9,9.45 8.55,9 8,9 C7.45,9 7,9.45 7,10 C7,10.55 7.45,11 8,11 C8.55,11 9,10.55 9,10 Z" id="path-1"></path>
    </defs>
    <g id="Symbols" stroke="none" stroke-width="1" fill="none" fill-rule="evenodd">
        <g id="Icon/dashboard" transform="translate(0.000000, -1.000000)">
            <g id="↳-🎨Color-Copy" transform="translate(0.000000, 1.000000)">
                <g id="↳-🎨Color">
                    <mask id="mask-2" fill="white">
                        <use xlink:href="#path-1"></use>
                    </mask>
                    <use id="Mask" fill="#516173" fill-rule="nonzero" xlink:href="#path-1"></use>
                </g>
            </g>
        </g>
    </g>
</svg>