<?xml version="1.0" encoding="UTF-8"?>
<svg width="22px" height="16px" viewBox="0 0 22 16" version="1.1" xmlns="http://www.w3.org/2000/svg" xmlns:xlink="http://www.w3.org/1999/xlink">
    <!-- Generator: Sketch 49.1 (51147) - http://www.bohemiancoding.com/sketch -->
    <title>mail</title>
    <desc>Created with Sketch.</desc>
    <defs></defs>
    <g id="Landing-500" stroke="none" stroke-width="1" fill="none" fill-rule="evenodd">
        <g id="Tablet-TY" transform="translate(-129.000000, -497.000000)" fill="#FFFFFF" fill-rule="nonzero">
            <g id="Social" transform="translate(129.000000, 497.000000)">
                <g id="mail-black-envelope-symbol">
                    <g id="mail">
                        <path d="M22,13.3332601 C22,13.8009387 21.8643394,14.2344988 21.6470195,14.6159579 L14.7007178,7.07954758 L21.571708,1.2502061 C21.8389938,1.66151885 22,2.14467393 22,2.66678391 L22,13.3332601 Z M11.0000227,8.44793739 L20.5607828,0.33599701 C20.1684463,0.12772459 19.7266426,0 19.2500623,0 L2.749983,0 C2.27281327,0 1.83087358,0.12772459 1.44012399,0.33599701 L11.0000227,8.44793739 Z M13.6654899,7.95717599 L11.4524362,9.83606846 C11.3229873,9.94541478 11.1617997,10.000022 11.0000227,10.000022 C10.8381549,10.000022 10.6769673,9.94541478 10.5475185,9.83606846 L8.33396605,7.95708806 L1.29979329,15.5898304 C1.72142017,15.8463348 2.21554746,16 2.74993766,16 L19.2500623,16 C19.7843619,16 20.2787159,15.8463348 20.7002067,15.5898304 L13.6654899,7.95717599 Z M0.428382704,1.25016213 C0.161142266,1.66147488 0,2.14462996 0,2.66678391 L0,13.333304 C0,13.8009827 0.135025793,14.2345428 0.35316182,14.6160018 L7.29864739,7.07827253 L0.428382704,1.25016213 Z" id="Shape"></path>
                    </g>
                </g>
            </g>
        </g>
    </g>
</svg>