<?xml version="1.0" encoding="utf-8"?>
<!-- Generator: Adobe Illustrator 21.0.0, SVG Export Plug-In . SVG Version: 6.00 Build 0)  -->
<svg version="1.1" id="Layer_1" xmlns="http://www.w3.org/2000/svg" xmlns:xlink="http://www.w3.org/1999/xlink" x="0px" y="0px"
	 viewBox="0 0 16 16" style="enable-background:new 0 0 16 16;" xml:space="preserve">
<style type="text/css">
	.st0{filter:url(#Adobe_OpacityMaskFilter);}
	.st1{fill:#FFFFFF;}
	.st2{mask:url(#mask-2);}
	.st3{fill:#39b54a;}
</style>
<title>Icon/+ Circle</title>
<desc>Created with Sketch.</desc>
<g id="Icon_x2F__x2B_-Circle">
	<g id="Error-Icon" transform="translate(8.000000, 8.000000) rotate(-315.000000) translate(-8.000000, -8.000000) ">
	</g>
	<defs>
		<filter id="Adobe_OpacityMaskFilter" filterUnits="userSpaceOnUse" x="-3.3" y="-3.3" width="22.6" height="22.6">
			<feColorMatrix  type="matrix" values="1 0 0 0 0  0 1 0 0 0  0 0 1 0 0  0 0 0 1 0"/>
		</filter>
	</defs>
	<mask maskUnits="userSpaceOnUse" x="-3.3" y="-3.3" width="22.6" height="22.6" id="mask-2">
		<g class="st0">
			<path id="path-1" class="st1" d="M2.3,13.7c-3.1-3.1-3.1-8.2,0-11.3c3.1-3.1,8.2-3.1,11.3,0s3.1,8.2,0,11.3
				C10.5,16.8,5.5,16.8,2.3,13.7z M10.9,9c0.5,0,1-0.4,1-1c0-0.5-0.4-1-1-1L9,7l0-1.9c0-0.5-0.4-1-1-1c-0.5,0-1,0.4-1,1L7,7L5.2,7
				c-0.5,0-1,0.4-1,1c0,0.5,0.4,1,1,1L7,9l0,1.9c0,0.5,0.4,1,1,1c0.5,0,1-0.4,1-1L9,9H10.9z"/>
		</g>
	</mask>
	<g id="UI_x2F_Color_x2F_Flat_x2F_Grey-50_x25_" class="st2">
		<rect id="Base" x="0" y="0" transform="matrix(0.7071 -0.7071 0.7071 0.7071 -3.3137 8)" class="st3" width="16" height="16"/>
	</g>
</g>
</svg>
