<?xml version="1.0" encoding="UTF-8"?>
<svg width="20px" height="20px" viewBox="0 0 20 20" version="1.1" xmlns="http://www.w3.org/2000/svg" xmlns:xlink="http://www.w3.org/1999/xlink">
    <!-- Generator: Sketch 49.1 (51147) - http://www.bohemiancoding.com/sketch -->
    <title>Skype</title>
    <desc>Created with Sketch.</desc>
    <defs></defs>
    <g id="Landing-500" stroke="none" stroke-width="1" fill="none" fill-rule="evenodd">
        <g id="Tablet-TY" transform="translate(-130.000000, -529.000000)" fill="#FFFFFF" fill-rule="nonzero">
            <g id="Social" transform="translate(129.000000, 497.000000)">
                <g id="skype-logo" transform="translate(1.000000, 32.000000)">
                    <g id="Skype">
                        <path d="M19.1651495,11.4478218 C19.239781,10.9756302 19.279073,10.4925579 19.279073,9.99948852 C19.279073,4.87466347 15.1247229,0.720493255 9.99965119,0.720493255 C9.50787345,0.720493255 9.02339612,0.760993393 8.55161312,0.834786409 C7.6970005,0.306006203 6.68833535,0 5.60736361,0 C2.51054954,0 0,2.51017153 0,5.60724632 C0,6.68796295 0.306198602,7.69577004 0.834757372,8.55208522 C0.761613803,9.02506731 0.721345316,9.5066051 0.721345316,9.99967451 C0.721345316,15.1248715 4.87560243,19.2777863 9.99946519,19.2777863 C10.4916614,19.2777863 10.9762783,19.2398436 11.4480147,19.1653996 C12.3035109,19.6931568 13.311339,20 14.3920783,20 C17.4897293,20 19.9999999,17.4891775 19.9999999,14.3921957 C20.0002324,13.3110606 19.6942198,12.303486 19.1651495,11.4478218 Z M14.4053306,14.2196865 C14.0127826,14.784782 13.4361434,15.2263776 12.682667,15.5439154 C11.9276561,15.8622902 11.035286,16.0207104 10.0047661,16.0207104 C8.76964885,16.0207104 7.74703387,15.8045857 6.93985064,15.3681514 C6.36767543,15.0556354 5.90230935,14.6364055 5.54454291,14.1136236 C5.18603247,13.5904232 5.00426629,13.0780569 5.00426629,12.5784777 C5.00426629,12.2837707 5.11665536,12.0274713 5.33543507,11.8185073 C5.55649326,11.6080089 5.84120913,11.5025039 6.17726035,11.5025039 C6.45253685,11.5025039 6.68898634,11.5854107 6.88149389,11.7496896 C7.07255995,11.9139221 7.23284341,12.1526916 7.36392525,12.467765 C7.52104674,12.8327777 7.69169957,13.1379004 7.87327976,13.3813662 C8.05374396,13.6218096 8.30772373,13.8225434 8.63666054,13.9796616 C8.9619704,14.1371983 9.39492639,14.2159666 9.93669099,14.2159666 C10.6781241,14.2159666 11.2773154,14.0555935 11.7358926,13.7392182 C12.1967947,13.4199599 12.4181784,13.031512 12.4181784,12.5621568 C12.4181784,12.1877979 12.2988144,11.8904869 12.0540415,11.6586922 C11.8070367,11.4238751 11.4880507,11.2450421 11.0922013,11.1202868 C10.6948173,10.9942295 10.1612831,10.8605465 9.49266814,10.7197028 C8.59485757,10.5237584 7.84398513,10.2956836 7.23591238,10.0337579 C6.62704913,9.77085571 6.1421533,9.4114693 5.78275938,8.95750508 C5.42262146,8.49907701 5.24304075,7.92928518 5.24304075,7.25440689 C5.24304075,6.61086854 5.43261883,6.03535741 5.812147,5.53447626 C6.19148917,5.03220017 6.74032168,4.6477511 7.45594757,4.37996661 C8.16906249,4.11227512 9.00860931,3.97835963 9.97040306,3.97835963 C10.7395498,3.97835963 11.4048633,4.06735763 11.9680176,4.24442368 C12.5296375,4.42279167 12.9977935,4.65816675 13.3721138,4.95352481 C13.7440625,5.2482319 14.017758,5.55907394 14.1911078,5.88526046 C14.3643181,6.21242345 14.451551,6.5319607 14.451551,6.84377921 C14.451551,7.13369695 14.3391619,7.3966456 14.1201497,7.62709185 C13.901184,7.85786358 13.6210716,7.97550462 13.2939482,7.97443516 C12.999049,7.97443516 12.7677144,7.90640795 12.6072915,7.7624023 C12.4510535,7.62309298 12.2869571,7.40129545 12.1094688,7.09217385 C11.8851092,6.66085436 11.6163891,6.32481017 11.3039131,6.08445976 C10.9996675,5.8485732 10.4977063,5.72577083 9.79923874,5.72725878 C9.15298997,5.72725878 8.63591655,5.85931433 8.24564702,6.11756664 C7.85295952,6.37995731 7.66524141,6.68438257 7.66435792,7.04107207 C7.66500891,7.26459005 7.72927109,7.4530482 7.85858595,7.61421178 C7.98990028,7.77686331 8.17259645,7.91780007 8.40741846,8.03660357 C8.64233347,8.15726701 8.88129393,8.25058937 9.12141687,8.31773311 C9.36437628,8.38659729 9.76747964,8.48615044 10.3277975,8.61797351 C11.0304966,8.76941891 11.6678639,8.93862672 12.2405972,9.12303951 C12.8122144,9.30838227 13.3000397,9.53190025 13.70305,9.79819679 C14.1092689,10.0637029 14.4267668,10.4022115 14.6534049,10.8110722 C14.8816705,11.2205839 14.9953616,11.7207676 14.9953616,12.3093448 C14.9962451,13.0180739 14.7988086,13.6554745 14.4053306,14.2196865 Z"></path>
                    </g>
                </g>
            </g>
        </g>
    </g>
</svg>