<?xml version="1.0" encoding="UTF-8"?>
<svg width="16px" height="16px" viewBox="0 0 16 16" version="1.1" xmlns="http://www.w3.org/2000/svg" xmlns:xlink="http://www.w3.org/1999/xlink">
    <!-- Generator: Sketch 49.1 (51147) - http://www.bohemiancoding.com/sketch -->
    <title>Icon/Social/Vimeo</title>
    <desc>Created with Sketch.</desc>
    <defs>
        <path d="M15.9920113,4.23375168 C15.9223644,5.81128354 14.8348004,7.96887006 12.7293196,10.7065112 C10.5541917,13.5688371 8.71122626,15 7.20578064,15 C6.273583,15 5.48067925,14.1272075 4.83778433,12.3870435 C4.40918771,10.7878273 3.97523363,9.19403225 3.54663701,7.59481611 C3.06982328,5.85465211 2.55550734,4.98185957 2.00368919,4.98185957 C1.88582512,4.98185957 1.46258596,5.23664994 0.750044082,5.74623068 L0,4.76501671 C0.787546286,4.06569846 1.56973511,3.36095915 2.33585157,2.65621983 C3.39127074,1.73463765 4.17881703,1.25216227 4.70920534,1.20337263 C5.95213553,1.08410905 6.71825199,1.94605944 7.0075547,3.78922381 C7.31828725,5.77875711 7.53258556,7.01476144 7.65580709,7.49723682 C8.01475676,9.14524261 8.41120863,9.97466657 8.83980525,9.97466657 C9.17196763,9.97466657 9.67556865,9.43798048 10.3506083,8.37002936 C11.0202905,7.30207824 11.3792402,6.48349642 11.4274573,5.92512604 C11.5238916,5.00354386 11.1649419,4.5373317 10.3506083,4.5373317 C9.96487137,4.5373317 9.57377696,4.62406884 9.16661017,4.80296421 C9.95415645,2.19542874 11.4542446,0.932319043 13.6722321,1.00279297 C15.3116142,1.04074048 16.0884455,2.11953374 15.9920113,4.23375168 Z" id="path-1"></path>
    </defs>
    <g id="Icon/Social/Vimeo" stroke="none" stroke-width="1" fill="none" fill-rule="evenodd">
        <mask id="mask-2" fill="white">
            <use xlink:href="#path-1"></use>
        </mask>
        <g id="Vimeo"></g>
        <g id="UI/Color/Flat/Grey-50%" mask="url(#mask-2)" fill="#fff">
            <rect id="Base" x="0" y="0" width="16" height="16"></rect>
        </g>
    </g>
</svg>